# xmcd CD database file
#
# Track frame offsets:
#	150
#	18173
#	38903
#	59875
#	82483
#	100310
#	115623
#	134418
#	151050
#	168870
#
# Disc length: 2486 seconds
#
# Revision: 2
# Processed by: cddbd v1.5.1PL0 Copyright (c) Steve Scherf et al.
# Submitted via: CDex 1.51
#
DISCID=8009b40a
DTITLE=REPLICA - Tough and Free
DYEAR=1988
DGENRE=Japanese Rock
TTITLE0=SUGAR BABY'S GROWIN'
TTITLE1=原色の夜
TTITLE2=GETTING MY SHADOW
TTITLE3=MISTIQUE BLUE
TTITLE4=HEAVY RAIN
TTITLE5=TOUGH and FREE
TTITLE6=2088
TTITLE7=不機嫌なジョーイ
TTITLE8=APRIL 26th
TTITLE9=メビウス
EXTD=YEAR: 1988
EXTT0=
EXTT1=
EXTT2=
EXTT3=
EXTT4=
EXTT5=
EXTT6=
EXTT7=
EXTT8=
EXTT9=
PLAYORDER=
